<svg width="48" height="60" viewBox="0 0 48 60" fill="none" xmlns="http://www.w3.org/2000/svg">
<g clip-path="url(#clip0_410_576)">
<path d="M0.417969 22.4578H7.98984V15.3026C8.24049 20.5254 12.533 22.4578 15.0395 22.4578H22.9247V0H15.4573V6.94625C15.2902 2.18311 11.3841 0 9.13867 0H0.417969V22.4578Z" fill="white"/>
<path d="M46.8936 0.0517578H24.5957V14.5188C24.5957 20.9532 29.2955 22.4921 31.6454 22.4573H46.8936V14.9366H39.7394C45.964 14.2681 47.1024 9.74866 46.8936 7.57251H40.3139C46.0371 6.27727 47.085 2.01899 46.8936 0.0517578Z" fill="white"/>
<path d="M8.66828 26.0615H0.574219V34.3657C0.800505 35.3406 1.82749 37.2904 4.12516 37.2904C2.94152 37.3252 0.574219 38.0007 0.574219 40.4241V48.4671H8.35497C9.46899 48.4671 11.7075 47.7673 11.7493 44.9679C11.8189 46.1343 12.5221 48.4671 14.778 48.4671H22.9765L23.0809 40.4241C23.1506 39.3795 22.235 37.2904 19.8955 37.2904C20.8007 37.0467 23.0809 36.1205 23.0809 34.3657V26.0615H14.7258C12.3028 26.1869 11.697 28.551 11.697 29.7174C11.697 27.0852 9.67787 26.1834 8.66828 26.0615Z" fill="white"/>
<path d="M39.6867 26.1133H31.9582C27.8629 26.1133 24.543 29.4337 24.543 33.5296V41.0503C24.543 45.1462 27.8629 48.4666 31.9582 48.4666H39.6867C43.782 48.4666 47.1019 45.1462 47.1019 41.0503V33.5296C47.1019 29.4337 43.782 26.1133 39.6867 26.1133Z" fill="white"/>
<path d="M5.62508 53.4813H4.88926C4.84574 53.2695 4.76959 53.0836 4.6608 52.9234C4.55399 52.7631 4.42344 52.6286 4.26915 52.5198C4.11683 52.409 3.94771 52.3259 3.76178 52.2705C3.57585 52.2152 3.38201 52.1875 3.18024 52.1875C2.81233 52.1875 2.47903 52.2804 2.18036 52.4664C1.88365 52.6523 1.64728 52.9264 1.47123 53.2883C1.29716 53.6504 1.21013 54.0945 1.21013 54.6208C1.21013 55.147 1.29716 55.5911 1.47123 55.9532C1.64728 56.3152 1.88365 56.5892 2.18036 56.7751C2.47903 56.9611 2.81233 57.0541 3.18024 57.0541C3.38201 57.0541 3.57585 57.0264 3.76178 56.971C3.94771 56.9156 4.11683 56.8335 4.26915 56.7247C4.42344 56.614 4.55399 56.4784 4.6608 56.3182C4.76959 56.1559 4.84574 55.97 4.88926 55.7603H5.62508C5.56969 56.0709 5.46881 56.3489 5.32244 56.5941C5.17607 56.8395 4.99409 57.0482 4.7765 57.2202C4.55893 57.3904 4.31464 57.52 4.04365 57.609C3.77464 57.698 3.48684 57.7425 3.18024 57.7425C2.662 57.7425 2.20112 57.6159 1.79761 57.3627C1.39409 57.1095 1.07662 56.7494 0.845189 56.2825C0.613761 55.8156 0.498047 55.2617 0.498047 54.6208C0.498047 53.9798 0.613761 53.4259 0.845189 52.959C1.07662 52.4921 1.39409 52.132 1.79761 51.8788C2.20112 51.6256 2.662 51.499 3.18024 51.499C3.48684 51.499 3.77464 51.5435 4.04365 51.6325C4.31464 51.7215 4.55893 51.8521 4.7765 52.0242C4.99409 52.1944 5.17607 52.4021 5.32244 52.6474C5.46881 52.8908 5.56969 53.1687 5.62508 53.4813ZM11.9411 54.6208C11.9411 55.2617 11.8255 55.8156 11.594 56.2825C11.3626 56.7494 11.0451 57.1095 10.6416 57.3627C10.2381 57.6159 9.7772 57.7425 9.25896 57.7425C8.74072 57.7425 8.27984 57.6159 7.87631 57.3627C7.4728 57.1095 7.15532 56.7494 6.9239 56.2825C6.69247 55.8156 6.57676 55.2617 6.57676 54.6208C6.57676 53.9798 6.69247 53.4259 6.9239 52.959C7.15532 52.4921 7.4728 52.132 7.87631 51.8788C8.27984 51.6256 8.74072 51.499 9.25896 51.499C9.7772 51.499 10.2381 51.6256 10.6416 51.8788C11.0451 52.132 11.3626 52.4921 11.594 52.959C11.8255 53.4259 11.9411 53.9798 11.9411 54.6208ZM11.229 54.6208C11.229 54.0945 11.1411 53.6504 10.965 53.2883C10.7909 52.9264 10.5546 52.6523 10.2559 52.4664C9.95917 52.2804 9.62687 52.1875 9.25896 52.1875C8.89104 52.1875 8.55775 52.2804 8.25906 52.4664C7.96236 52.6523 7.72598 52.9264 7.54994 53.2883C7.37588 53.6504 7.28884 54.0945 7.28884 54.6208C7.28884 55.147 7.37588 55.5911 7.54994 55.9532C7.72598 56.3152 7.96236 56.5892 8.25906 56.7751C8.55775 56.9611 8.89104 57.0541 9.25896 57.0541C9.62687 57.0541 9.95917 56.9611 10.2559 56.7751C10.5546 56.5892 10.7909 56.3152 10.965 55.9532C11.1411 55.5911 11.229 55.147 11.229 54.6208ZM13.1784 57.6595V51.5821H13.9143V57.0066H16.7388V57.6595H13.1784ZM17.8782 57.6595V51.5821H21.5455V52.2349H18.6141V54.2884H21.3556V54.9412H18.6141V57.0066H21.5929V57.6595H17.8782ZM27.7614 53.4813H27.0255C26.9821 53.2695 26.9058 53.0836 26.7971 52.9234C26.6903 52.7631 26.5597 52.6286 26.4055 52.5198C26.2531 52.409 26.084 52.3259 25.8981 52.2705C25.7122 52.2152 25.5182 52.1875 25.3166 52.1875C24.9486 52.1875 24.6154 52.2804 24.3167 52.4664C24.02 52.6523 23.7836 52.9264 23.6075 53.2883C23.4334 53.6504 23.3464 54.0945 23.3464 54.6208C23.3464 55.147 23.4334 55.5911 23.6075 55.9532C23.7836 56.3152 24.02 56.5892 24.3167 56.7751C24.6154 56.9611 24.9486 57.0541 25.3166 57.0541C25.5182 57.0541 25.7122 57.0264 25.8981 56.971C26.084 56.9156 26.2531 56.8335 26.4055 56.7247C26.5597 56.614 26.6903 56.4784 26.7971 56.3182C26.9058 56.1559 26.9821 55.97 27.0255 55.7603H27.7614C27.7059 56.0709 27.6052 56.3489 27.4587 56.5941C27.3124 56.8395 27.1304 57.0482 26.9128 57.2202C26.6952 57.3904 26.4509 57.52 26.18 57.609C25.9109 57.698 25.6231 57.7425 25.3166 57.7425C24.7983 57.7425 24.3375 57.6159 23.9339 57.3627C23.5303 57.1095 23.2129 56.7494 22.9815 56.2825C22.7501 55.8156 22.6344 55.2617 22.6344 54.6208C22.6344 53.9798 22.7501 53.4259 22.9815 52.959C23.2129 52.4921 23.5303 52.132 23.9339 51.8788C24.3375 51.6256 24.7983 51.499 25.3166 51.499C25.6231 51.499 25.9109 51.5435 26.18 51.6325C26.4509 51.7215 26.6952 51.8521 26.9128 52.0242C27.1304 52.1944 27.3124 52.4021 27.4587 52.6474C27.6052 52.8908 27.7059 53.1687 27.7614 53.4813ZM28.6181 52.2349V51.5821H33.1754V52.2349H31.2647V57.6595H30.5288V52.2349H28.6181ZM35.0469 51.5821V57.6595H34.3111V51.5821H35.0469ZM36.7715 51.5821L38.5755 56.698H38.6467L40.4506 51.5821H41.2221L38.9908 57.6595H38.2313L36.0001 51.5821H36.7715ZM47.01 54.6208C47.01 55.2617 46.8943 55.8156 46.6629 56.2825C46.4314 56.7494 46.1139 57.1095 45.7105 57.3627C45.3069 57.6159 44.846 57.7425 44.3278 57.7425C43.8096 57.7425 43.3487 57.6159 42.9451 57.3627C42.5417 57.1095 42.2242 56.7494 41.9927 56.2825C41.7613 55.8156 41.6456 55.2617 41.6456 54.6208C41.6456 53.9798 41.7613 53.4259 41.9927 52.959C42.2242 52.4921 42.5417 52.132 42.9451 51.8788C43.3487 51.6256 43.8096 51.499 44.3278 51.499C44.846 51.499 45.3069 51.6256 45.7105 51.8788C46.1139 52.132 46.4314 52.4921 46.6629 52.959C46.8943 53.4259 47.01 53.9798 47.01 54.6208ZM46.298 54.6208C46.298 54.0945 46.2099 53.6504 46.0338 53.2883C45.8597 52.9264 45.6234 52.6523 45.3247 52.4664C45.028 52.2804 44.6957 52.1875 44.3278 52.1875C43.9599 52.1875 43.6266 52.2804 43.3279 52.4664C43.0312 52.6523 42.7948 52.9264 42.6188 53.2883C42.4448 53.6504 42.3577 54.0945 42.3577 54.6208C42.3577 55.147 42.4448 55.5911 42.6188 55.9532C42.7948 56.3152 43.0312 56.5892 43.3279 56.7751C43.6266 56.9611 43.9599 57.0541 44.3278 57.0541C44.6957 57.0541 45.028 56.9611 45.3247 56.7751C45.6234 56.5892 45.8597 56.3152 46.0338 55.9532C46.2099 55.5911 46.298 55.147 46.298 54.6208Z" fill="white"/>
</g>
<defs>
<clipPath id="clip0_410_576">
<rect width="47.52" height="59.6438" fill="white"/>
</clipPath>
</defs>
</svg>
